<svg width="61" height="61" viewBox="0 0 61 61" fill="none" xmlns="http://www.w3.org/2000/svg">
<path d="M30.3397 60.6794C47.0958 60.6794 60.6794 47.0958 60.6794 30.3397C60.6794 13.5835 47.0958 0 30.3397 0C13.5835 0 0 13.5835 0 30.3397C0 47.0958 13.5835 60.6794 30.3397 60.6794Z" fill="#5F259F"/>
<path d="M44.1125 22.4235C44.1125 21.237 43.0955 20.22 41.909 20.22H37.841L28.5184 9.54135C27.6709 8.52434 26.3149 8.18534 24.9588 8.52434L21.7383 9.54135C21.2298 9.71085 21.0603 10.3889 21.3993 10.7279L31.5694 20.3895H16.1447C15.6362 20.3895 15.2972 20.7285 15.2972 21.237V22.932C15.2972 24.1185 16.3143 25.1355 17.5008 25.1355H19.8738V33.2716C19.8738 39.3737 23.0943 42.9332 28.5184 42.9332C30.2134 42.9332 31.5694 42.7637 33.2644 42.0857V47.5097C33.2644 49.0353 34.4509 50.2218 35.9765 50.2218H38.3495C38.858 50.2218 39.3665 49.7133 39.3665 49.2048V24.966H43.265C43.7735 24.966 44.1125 24.627 44.1125 24.1185V22.4235ZM33.2644 37.0006C32.2474 37.5091 30.8914 37.6786 29.8744 37.6786C27.1624 37.6786 25.8063 36.3226 25.8063 33.2716V25.1355H33.2644V37.0006Z" fill="white"/>
</svg>
